<?xml version="1.0" encoding="UTF-8" standalone="no"?>
<!-- Created with Inkscape (http://www.inkscape.org/) -->

<svg
   xmlns:dc="http://purl.org/dc/elements/1.1/"
   xmlns:cc="http://creativecommons.org/ns#"
   xmlns:rdf="http://www.w3.org/1999/02/22-rdf-syntax-ns#"
   xmlns:svg="http://www.w3.org/2000/svg"
   xmlns="http://www.w3.org/2000/svg"
   xmlns:sodipodi="http://sodipodi.sourceforge.net/DTD/sodipodi-0.dtd"
   xmlns:inkscape="http://www.inkscape.org/namespaces/inkscape"
   width="128"
   height="128"
   id="svg2973"
   version="1.1"
   inkscape:version="0.47pre4 r22446"
   sodipodi:docname="New document 5">
  <defs
     id="defs2975">
    <inkscape:perspective
       sodipodi:type="inkscape:persp3d"
       inkscape:vp_x="0 : 240 : 1"
       inkscape:vp_y="0 : 1000 : 0"
       inkscape:vp_z="640 : 240 : 1"
       inkscape:persp3d-origin="320 : 160 : 1"
       id="perspective2981" />
    <inkscape:perspective
       id="perspective2959"
       inkscape:persp3d-origin="0.5 : 0.33333333 : 1"
       inkscape:vp_z="1 : 0.5 : 1"
       inkscape:vp_y="0 : 1000 : 0"
       inkscape:vp_x="0 : 0.5 : 1"
       sodipodi:type="inkscape:persp3d" />
    <filter
       color-interpolation-filters="sRGB"
       x="0"
       width="1"
       y="0"
       height="1"
       inkscape:menu-tooltip="Glowing image content without blurring it"
       inkscape:menu="Image effects"
       inkscape:label="Soft focus lens"
       id="filter3042">
      <feGaussianBlur
         result="result3"
         stdDeviation="5"
         id="feGaussianBlur3044" />
      <feComposite
         k4="0"
         k2="0"
         result="result1"
         k3="0.5"
         k1="0.5"
         in="result3"
         operator="arithmetic"
         in2="result3"
         id="feComposite3046" />
      <feBlend
         in="SourceGraphic"
         mode="screen"
         result="result5"
         in2="result1"
         id="feBlend3048" />
      <feBlend
         result="result6"
         in="result5"
         mode="darken"
         in2="result5"
         id="feBlend3050" />
      <feComposite
         operator="in"
         in2="SourceGraphic"
         id="feComposite3052" />
    </filter>
  </defs>
  <sodipodi:namedview
     id="base"
     pagecolor="#ffffff"
     bordercolor="#666666"
     borderopacity="1.0"
     inkscape:pageopacity="0.0"
     inkscape:pageshadow="2"
     inkscape:zoom="2"
     inkscape:cx="119.07339"
     inkscape:cy="40.280143"
     inkscape:current-layer="layer1"
     inkscape:document-units="px"
     showgrid="false"
     inkscape:window-width="986"
     inkscape:window-height="701"
     inkscape:window-x="0"
     inkscape:window-y="0"
     inkscape:window-maximized="0" />
  <metadata
     id="metadata2978">
    <rdf:RDF>
      <cc:Work
         rdf:about="">
        <dc:format>image/svg+xml</dc:format>
        <dc:type
           rdf:resource="http://purl.org/dc/dcmitype/StillImage" />
        <dc:title></dc:title>
      </cc:Work>
    </rdf:RDF>
  </metadata>
  <g
     id="layer1"
     inkscape:label="Layer 1"
     inkscape:groupmode="layer"
     transform="translate(-122.27461,-32.280143)">
    <path
       style="fill:#b3b3b3"
       d="m 55.636366,31.454546 a 23.09091,22 0 1 1 -46.18182,0 23.09091,22 0 1 1 46.18182,0 z"
       sodipodi:ry="22"
       sodipodi:rx="23.09091"
       sodipodi:cy="31.454546"
       sodipodi:cx="32.545456"
       id="path2886-1"
       sodipodi:type="arc"
       transform="matrix(2.5525169,0,0,2.7294485,104.14172,10.878698)" />
    <path
       transform="matrix(2.3662019,0,0,2.5701424,110.20543,19.394348)"
       style="fill:#800080;filter:url(#filter3042)"
       d="m 55.636366,31.454546 a 23.09091,22 0 1 1 -46.18182,0 23.09091,22 0 1 1 46.18182,0 z"
       sodipodi:ry="22"
       sodipodi:rx="23.09091"
       sodipodi:cy="31.454546"
       sodipodi:cx="32.545456"
       id="path2886"
       sodipodi:type="arc" />
    <path
       style="fill:#000000"
       d="m 55.636366,31.454546 a 23.09091,22 0 1 1 -46.18182,0 23.09091,22 0 1 1 46.18182,0 z"
       sodipodi:ry="22"
       sodipodi:rx="23.09091"
       sodipodi:cy="31.454546"
       sodipodi:cx="32.545456"
       id="path2886-3"
       sodipodi:type="arc"
       transform="matrix(1.7327306,0,0,1.433757,131.25226,80.139301)" />
    <path
       d="m 138.29784,131.01281 c 2.93356,-2.62709 5.23306,-6.01423 7.60479,-9.21703 3.94732,-5.22941 7.09268,-10.84868 9.79252,-16.92373 2.3315,-5.057676 3.951,-10.434976 5.63455,-15.771446 1.48807,-4.996509 2.63117,-10.111142 3.78188,-15.210116 0.71292,-3.334721 1.19009,-6.717444 1.64371,-10.102463 0.28419,-2.261979 0.41843,-4.542136 0.61199,-6.814752 0.0172,-1.276133 0.37845,-2.654409 2.5e-4,-3.897961 3.726,-1.92254 7.36248,-4.064833 11.17803,-5.767628 0.21208,-0.09468 0.0627,0.493777 0.0835,0.741874 0.0263,0.311851 0.0408,0.624748 0.0578,0.937348 0.12215,2.234466 0.36485,4.430007 0.62247,6.652278 1.06059,8.962717 2.92136,17.782336 4.73719,26.591594 1.19014,5.304477 2.30241,10.646731 3.80538,15.861415 0.5686,1.972807 1.15952,3.664807 1.80937,5.597037 1.20989,2.90701 2.07447,6.42151 3.99919,8.90199 0.10604,0.0742 0.19322,0.20403 0.31819,0.22249 0.0652,0.01 0.19471,-0.18829 0.1361,-0.15541 -3.58206,2.01298 -7.15165,4.05223 -10.71643,6.10113 -0.0934,0.0537 0.22547,-0.0316 0.29934,-0.11383 0.1844,-0.20503 0.37096,-1.01364 0.4211,-1.19083 0.51738,-2.5547 1.0907,-5.09529 1.64197,-7.64164 0.91094,-5.0596 1.56801,-10.173431 2.21191,-15.280763 0.75621,-6.12574 1.5524,-12.246506 2.59232,-18.323875 0.77465,-4.720238 1.55768,-9.440257 2.26834,-14.172489 0.30033,-2.30602 0.65719,-4.602134 0.85472,-6.922149 0.0287,-1.023473 0.12063,-2.025666 0.30903,-3.027585 0.91315,-5.565372 -7.77032,1.976199 11.17008,-7.076919 0.0718,-0.03431 0.29417,0.666088 0.50213,1.281825 0.69189,2.262196 1.08292,4.604942 1.42008,6.954627 0.90203,5.59789 1.21886,11.275235 1.78781,16.918806 0.98141,8.949668 2.17835,17.865313 3.80277,26.704277 1.85316,10.161795 5.22551,19.859925 8.96952,29.350295 1.97814,4.51981 4.00861,9.07969 6.76516,13.11589 1.25472,1.83722 1.70144,2.26769 3.09601,3.88342 1.7495,1.70029 0.88494,0.94104 2.57286,2.30544 0,0 -10.02063,6.79664 -10.02063,6.79664 l 0,0 c -1.55933,-1.6135 -0.75883,-0.73534 -2.38413,-2.65299 -1.369,-1.80755 -1.71701,-2.16931 -2.93105,-4.20197 -2.55651,-4.28037 -4.41005,-9.00005 -6.28364,-13.65945 -3.54686,-9.64561 -6.87848,-19.42645 -9.00089,-29.57425 -0.32499,-1.62237 -0.67129,-3.239883 -0.97499,-4.867116 -1.3385,-7.171628 -2.2161,-14.433184 -3.33932,-21.645428 -0.74338,-5.492522 -1.20739,-11.046721 -2.51892,-16.42776 -0.41769,-2.212802 -0.81834,-4.443301 -1.62949,-6.535426 -0.0661,-0.16512 -0.1192,-0.337204 -0.19837,-0.495425 -0.0492,-0.09817 -0.27286,-0.212373 -0.18418,-0.269015 3.52897,-2.253424 7.18029,-4.27351 10.73911,-6.47083 0.0573,-0.03544 -0.14813,-0.09045 -0.19472,-0.03959 -0.16315,0.178287 0.0588,0.584068 -0.0996,0.746233 -0.14576,1.018731 -0.49142,1.982906 -0.48283,3.028857 -0.30617,2.422692 -0.79358,4.809047 -1.20961,7.210968 -0.91979,4.792023 -1.87636,9.57356 -2.6658,14.394318 -1.13697,6.039885 -1.95371,12.142673 -2.6359,18.261781 -0.57815,5.031172 -1.11414,10.06707 -1.69747,15.09731 -0.36923,2.51669 -1.03311,4.97304 -1.2821,7.51398 -0.0916,0.56676 -0.14641,0.81508 -0.18526,1.37321 -0.015,0.20665 0.14318,0.51673 -0.0215,0.6212 -6.91011,4.38198 -8.81753,10.01029 -11.70083,5.53699 -1.51771,-3.03485 -2.31156,-6.42559 -3.43856,-9.63843 -0.54616,-1.90992 -1.13122,-3.88434 -1.59503,-5.81798 -1.28277,-5.347765 -2.18542,-10.799599 -3.3606,-16.174684 -1.77328,-8.754719 -3.61892,-17.491068 -5.44276,-26.23342 -0.46371,-2.09228 -0.94801,-4.177452 -1.36675,-6.280675 -0.0573,-0.28825 -0.1202,-0.575185 -0.17645,-0.863707 -0.0253,-0.130293 -0.17539,-0.328065 -0.068,-0.392537 3.61916,-2.175392 7.34816,-4.127804 11.02225,-6.191706 -0.0835,-0.06747 -0.15929,-0.257293 -0.25032,-0.202372 -0.10604,0.06414 -0.0446,0.259505 -0.0607,0.390281 -0.13416,1.087908 -0.14555,2.190105 -0.26617,3.279781 -0.24028,2.316198 -0.45401,4.63257 -0.70614,6.946826 -0.55838,3.491475 -1.20742,6.963373 -1.98481,10.405859 -1.22007,5.150561 -2.47706,10.298864 -3.90455,15.385426 -1.68198,5.409836 -3.24778,10.892384 -5.69763,15.968988 -2.69896,6.03 -5.82854,11.81613 -9.61623,17.12586 -2.14712,3.04088 -4.26633,6.10756 -6.52693,9.05074 0,0 -11.44389,4.98834 -11.44389,4.98834 z"
       id="path2948"
       style="fill:#ffffff;stroke:none" />
  </g>
</svg>
