<?xml version="1.0" encoding="UTF-8" standalone="no"?>
<!-- Created with Inkscape (http://www.inkscape.org/) -->

<svg
   xmlns:dc="http://purl.org/dc/elements/1.1/"
   xmlns:cc="http://creativecommons.org/ns#"
   xmlns:rdf="http://www.w3.org/1999/02/22-rdf-syntax-ns#"
   xmlns:svg="http://www.w3.org/2000/svg"
   xmlns="http://www.w3.org/2000/svg"
   xmlns:sodipodi="http://sodipodi.sourceforge.net/DTD/sodipodi-0.dtd"
   xmlns:inkscape="http://www.inkscape.org/namespaces/inkscape"
   width="64px"
   height="64px"
   id="svg2876"
   version="1.1"
   inkscape:version="0.47pre4 r22446"
   sodipodi:docname="tray_icon_blue.svg">
  <defs
     id="defs2878">
    <inkscape:perspective
       sodipodi:type="inkscape:persp3d"
       inkscape:vp_x="0 : 32 : 1"
       inkscape:vp_y="0 : 1000 : 0"
       inkscape:vp_z="64 : 32 : 1"
       inkscape:persp3d-origin="32 : 21.333333 : 1"
       id="perspective2884" />
    <inkscape:perspective
       id="perspective2896"
       inkscape:persp3d-origin="0.5 : 0.33333333 : 1"
       inkscape:vp_z="1 : 0.5 : 1"
       inkscape:vp_y="0 : 1000 : 0"
       inkscape:vp_x="0 : 0.5 : 1"
       sodipodi:type="inkscape:persp3d" />
    <inkscape:perspective
       id="perspective2918"
       inkscape:persp3d-origin="0.5 : 0.33333333 : 1"
       inkscape:vp_z="1 : 0.5 : 1"
       inkscape:vp_y="0 : 1000 : 0"
       inkscape:vp_x="0 : 0.5 : 1"
       sodipodi:type="inkscape:persp3d" />
    <filter
       id="filter2994"
       inkscape:label="Soft focus lens"
       inkscape:menu="Image effects"
       inkscape:menu-tooltip="Glowing image content without blurring it"
       height="1"
       y="0"
       width="1"
       x="0"
       color-interpolation-filters="sRGB">
      <feGaussianBlur
         id="feGaussianBlur2996"
         stdDeviation="5"
         result="result3" />
      <feComposite
         id="feComposite2998"
         in2="result3"
         operator="arithmetic"
         in="result3"
         k1="0.5"
         k3="0.5"
         result="result1" />
      <feBlend
         id="feBlend3000"
         in2="result1"
         result="result5"
         mode="screen"
         in="SourceGraphic" />
      <feBlend
         id="feBlend3002"
         in2="result5"
         mode="darken"
         in="result5"
         result="result6" />
      <feComposite
         id="feComposite3004"
         in2="SourceGraphic"
         operator="in" />
    </filter>
  </defs>
  <sodipodi:namedview
     id="base"
     pagecolor="#ffffff"
     bordercolor="#666666"
     borderopacity="1.0"
     inkscape:pageopacity="0.0"
     inkscape:pageshadow="2"
     inkscape:zoom="5.5"
     inkscape:cx="27.355736"
     inkscape:cy="35.545456"
     inkscape:current-layer="layer1"
     showgrid="true"
     inkscape:document-units="px"
     inkscape:grid-bbox="true"
     inkscape:window-width="1440"
     inkscape:window-height="857"
     inkscape:window-x="0"
     inkscape:window-y="0"
     inkscape:window-maximized="1">
    <inkscape:grid
       type="xygrid"
       id="grid2830" />
  </sodipodi:namedview>
  <metadata
     id="metadata2881">
    <rdf:RDF>
      <cc:Work
         rdf:about="">
        <dc:format>image/svg+xml</dc:format>
        <dc:type
           rdf:resource="http://purl.org/dc/dcmitype/StillImage" />
        <dc:title />
      </cc:Work>
    </rdf:RDF>
  </metadata>
  <g
     id="layer1"
     inkscape:label="Layer 1"
     inkscape:groupmode="layer">
    <path
       transform="matrix(1.1890348,0,0,1.2499999,-6.2417837,-7.8181818)"
       sodipodi:type="arc"
       id="path2886-1"
       sodipodi:cx="32.545456"
       sodipodi:cy="31.454546"
       sodipodi:rx="23.09091"
       sodipodi:ry="22"
       d="m 55.636366,31.454546 a 23.09091,22 0 1 1 -46.18182,0 23.09091,22 0 1 1 46.18182,0 z"
       style="fill:#b3b3b3" />
    <path
       sodipodi:type="arc"
       id="path2886"
       sodipodi:cx="32.545456"
       sodipodi:cy="31.454546"
       sodipodi:rx="23.09091"
       sodipodi:ry="22"
       d="m 55.636366,31.454546 a 23.09091,22 0 1 1 -46.18182,0 23.09091,22 0 1 1 46.18182,0 z"
       style="fill:#0000ff;filter:url(#filter2994)"
       transform="matrix(1.102244,0,0,1.1770428,-3.417134,-3.9182877)" />
    <path
       transform="matrix(0.80715506,0,0,0.65661475,6.3870764,23.900954)"
       sodipodi:type="arc"
       id="path2886-3"
       sodipodi:cx="32.545456"
       sodipodi:cy="31.454546"
       sodipodi:rx="23.09091"
       sodipodi:ry="22"
       d="m 55.636366,31.454546 a 23.09091,22 0 1 1 -46.18182,0 23.09091,22 0 1 1 46.18182,0 z"
       style="fill:#000000" />
    <text
       xml:space="preserve"
       style="font-size:40px;font-style:normal;font-variant:normal;font-weight:normal;font-stretch:normal;fill:#cccccc;fill-opacity:1;stroke:none;font-family:DejaVu Serif;-inkscape-font-specification:DejaVu Serif"
       x="13.272727"
       y="43.090908"
       id="text2932"><tspan
         sodipodi:role="line"
         x="13.272727"
         y="43.090908"
         style="font-style:normal;font-variant:normal;font-weight:normal;font-stretch:normal;fill:#cccccc;font-family:DejaVu Serif;-inkscape-font-specification:DejaVu Serif"
         id="tspan2936" /></text>
    <path
       style="fill:#ffffff;stroke:none"
       id="path2948"
       d="m 9.6691104,47.199386 c 1.3665366,-1.203121 2.4377036,-2.754318 3.5425256,-4.221096 1.838769,-2.394906 3.303977,-4.968353 4.561633,-7.750531 1.086075,-2.316254 1.840486,-4.778881 2.624738,-7.222813 0.69318,-2.288241 1.225675,-4.630581 1.761699,-6.965748 0.332102,-1.527195 0.554378,-3.076374 0.765692,-4.626604 0.132379,-1.035914 0.194906,-2.080153 0.285077,-3.120939 0.0081,-0.584428 0.176299,-1.215634 1.26e-4,-1.785141 1.73568,-0.880462 3.42965,-1.8615624 5.207038,-2.6413883 0.09882,-0.043362 0.02915,0.2261337 0.03888,0.3397544 0.01222,0.1428173 0.019,0.2861138 0.02695,0.4292752 0.05686,1.0233137 0.169962,2.0288007 0.289964,3.0465297 0.494054,4.104638 1.360851,8.143741 2.206715,12.178099 0.554397,2.429281 1.072531,4.875863 1.77265,7.264021 0.264868,0.903482 0.540137,1.67836 0.842856,2.563264 0.563608,1.331313 0.966359,2.940847 1.86294,4.076823 0.04941,0.03397 0.09,0.09344 0.148223,0.101891 0.03039,0.0044 0.09068,-0.08623 0.06343,-0.07117 -1.668633,0.921885 -3.331442,1.855793 -4.992017,2.794119 -0.04353,0.02461 0.105032,-0.01449 0.13944,-0.0521 0.08587,-0.09387 0.172809,-0.464213 0.196161,-0.545358 0.241008,-1.169973 0.508078,-2.333482 0.76488,-3.499634 0.42434,-2.31713 0.73042,-4.659101 1.030366,-6.998094 0.352261,-2.805396 0.723154,-5.608508 1.207582,-8.391748 0.360847,-2.161718 0.725603,-4.323335 1.056654,-6.490546 0.139899,-1.056083 0.306139,-2.107631 0.398144,-3.170123 0.0134,-0.468718 0.05624,-0.92769 0.14396,-1.386537 0.425368,-2.5487613 -3.619642,0.905036 5.203344,-3.2410021 0.03343,-0.01571 0.13703,0.3050477 0.233896,0.5870358 0.32231,1.0360124 0.504464,2.1089143 0.66152,3.1849953 0.420189,2.563655 0.567778,5.163697 0.832815,7.748272 0.457165,4.098661 1.014738,8.18174 1.771441,12.229704 0.863258,4.653776 2.434186,9.095206 4.178258,13.441488 0.92147,2.069933 1.867321,4.158207 3.151393,6.006664 0.584485,0.841382 0.792582,1.038525 1.442219,1.778481 0.814963,0.778674 0.412228,0.430964 1.198506,1.055811 0,0 -4.667889,3.112642 -4.667889,3.112642 l 0,0 c -0.726377,-0.73893 -0.353492,-0.336757 -1.110605,-1.214977 -0.637716,-0.827797 -0.799826,-0.993483 -1.365354,-1.924368 -1.1909,-1.960275 -2.054332,-4.121734 -2.927106,-6.255596 -1.652225,-4.417375 -3.204185,-8.896689 -4.192862,-13.54405 -0.151396,-0.742996 -0.312711,-1.483764 -0.454185,-2.228984 -0.623514,-3.284378 -1.032324,-6.609939 -1.555546,-9.912914 -0.346296,-2.515399 -0.562445,-5.059044 -1.173379,-7.523388 -0.194589,-1.013393 -0.381212,-2.03489 -0.759074,-2.993016 -0.03081,-0.07562 -0.05554,-0.154429 -0.09244,-0.226889 -0.02289,-0.04496 -0.127113,-0.09726 -0.0858,-0.1232 1.643892,-1.0319961 3.344775,-1.9571305 5.002578,-2.9634323 0.02674,-0.016232 -0.06902,-0.041423 -0.09071,-0.018129 -0.07598,0.081654 0.02743,0.267484 -0.0464,0.3417509 -0.06794,0.4665455 -0.228921,0.9081071 -0.224916,1.387119 -0.14262,1.1095144 -0.369668,2.2023884 -0.563473,3.3023914 -0.428458,2.194594 -0.874059,4.384385 -1.241809,6.592137 -0.529626,2.766074 -0.910093,5.560956 -1.22787,8.363313 -0.26932,2.304112 -0.518997,4.610393 -0.790726,6.914083 -0.172004,1.152563 -0.481259,2.277492 -0.597242,3.441157 -0.04275,0.25956 -0.06824,0.373287 -0.08628,0.628889 -0.0068,0.09464 0.06673,0.236645 -0.01,0.284491 -3.218937,2.006806 -4.10746,4.584394 -5.450587,2.535761 -0.70699,-1.389864 -1.076785,-2.94271 -1.601772,-4.414088 -0.254424,-0.874684 -0.526952,-1.778906 -0.743012,-2.664447 -0.597548,-2.449106 -1.018034,-4.945875 -1.565458,-7.407491 -0.826055,-4.009379 -1.685803,-8.010347 -2.535394,-12.014064 -0.216006,-0.958197 -0.441614,-1.91314 -0.636672,-2.876349 -0.02672,-0.132009 -0.05604,-0.263416 -0.08222,-0.39555 -0.01181,-0.05967 -0.08172,-0.150243 -0.03175,-0.179769 1.685901,-0.99626 3.422979,-1.890402 5.134468,-2.8356026 -0.03887,-0.0309 -0.07424,-0.1178323 -0.116596,-0.092678 -0.04945,0.029366 -0.02079,0.1188451 -0.02831,0.1787359 -0.06247,0.4982271 -0.06782,1.0029977 -0.123986,1.5020347 -0.111937,1.060744 -0.211489,2.121568 -0.328948,3.181423 -0.26011,1.598985 -0.562441,3.189003 -0.924571,4.765551 -0.568343,2.358792 -1.153898,4.71655 -1.818854,7.04603 -0.783521,2.477534 -1.512913,4.988365 -2.654121,7.313285 -1.257249,2.761553 -2.715101,5.411411 -4.479514,7.843099 -1.000186,1.392623 -1.987379,2.797061 -3.040428,4.14494 0,0 -5.3308823,2.284501 -5.3308823,2.284501 z" />
  </g>
</svg>
